<svg id="Layer_1" xmlns="http://www.w3.org/2000/svg" viewBox="0 0 792 342.8"><style>.st0,.st1{fill:none;stroke:#b2b2b2;stroke-width:3;stroke-miterlimit:10}.st1{stroke-dasharray:5.0052,5.0052}.st2{fill:#e6e6e6}.st3{fill:#d7d7d7}.st4{fill:#bcbcbc}.st5{fill:#b2b2b2}</style><path class="st0" d="M-850.7 425.7s.7.5 2.2 1.3"/><path class="st1" d="M-844.2 429.3c26.7 13.9 129.6 58.6 206.5-34.6 0 0 29.7-67-22-70 0 0-6.7 2.3-10.5 7.6-9.1 12.6-15.7 37.8 23 57 6 3 13.2 3.8 21.8 6.5 0 0 4.4 1.1 20-1.7 5.3-.9 11-5 17.9-9.8 13-8.8 29.3-23.5 48.9-47.5 56.3-69 137.6-123.2 187.4-96.2"/><path class="st0" d="M-349.2 241.7c.7.4 1.4.9 2.1 1.3"/><g><path class="st2" d="M-341.3 227.3l170.6-14-152-3.3z"/><path class="st3" d="M-341.3 258.1l6 32 156.5-74.4z"/><path class="st4" d="M-338 249.7l-3.3-22.4 166.6-14.1z"/><path class="st2" d="M-348 237.7l177.3-23.4-204.6 57.4z"/></g><g><path class="st5" d="M60.8 262.5c-1.4-.8-2.2-1.3-2.2-1.3l1.6-2.5s.7.5 2.1 1.2l-1.5 2.6zM155.6 288.1h-3.3l.1-3h5v3h-1.8zm6.8-.2l-.1-3c1.6-.1 3.3-.2 4.9-.3l.2 3c-1.6.1-3.3.2-5 .3zm-15.2-.1c-1.7-.1-3.4-.2-5-.3l.2-3c1.6.1 3.3.2 5 .3l-.2 3zm25.3-.6l-.3-3c1.6-.2 3.3-.4 4.9-.6l.4 3c-1.7.2-3.4.4-5 .6zm-35.3-.2c-1.6-.2-3.3-.4-5-.6l.4-3c1.6.2 3.3.4 4.9.6l-.3 3zm45.3-1.3l-.5-3c1.6-.3 3.3-.6 4.9-1l.6 2.9c-1.7.5-3.4.8-5 1.1zm-55.3 0c-1.7-.3-3.3-.6-5-.9l.6-2.9c1.6.3 3.2.6 4.9.9l-.5 2.9zm-9.9-1.9c-1.7-.4-3.3-.7-4.9-1.1l.7-2.9c1.6.4 3.2.8 4.8 1.1l-.6 2.9zm75.1-.2l-.7-2.9c1.6-.4 3.2-.8 4.8-1.3l.8 2.9c-1.7.4-3.3.9-4.9 1.3zm-84.9-2.2c-1.6-.4-3.3-.9-4.9-1.4l.9-2.9c1.6.5 3.2.9 4.8 1.4l-.8 2.9zm94.6-.6l-.9-2.8c1.6-.5 3.1-1.1 4.7-1.6l1 2.8c-1.6.5-3.2 1-4.8 1.6zm-104.3-2.3c-1.6-.5-3.2-1.1-4.8-1.6l1-2.8c1.5.5 3.1 1.1 4.7 1.6l-.9 2.8zm113.8-1.2l-1.1-2.8c1.5-.6 3-1.3 4.5-2l1.2 2.7c-1.5.7-3.1 1.4-4.6 2.1zm-123.3-2.1c-1.6-.6-3.2-1.2-4.7-1.8l1.1-2.8c1.5.6 3 1.2 4.6 1.8l-1 2.8zm132.5-2.1l-1.3-2.7c1.5-.7 2.9-1.5 4.4-2.3l1.4 2.6-4.5 2.4zm-141.9-1.7c-1.6-.7-3.2-1.4-4.6-2l1.2-2.7c1.4.7 2.9 1.3 4.5 2l-1.1 2.7zm150.7-3.2l-1.5-2.6c1.4-.8 2.8-1.7 4.2-2.6l1.6 2.5c-1.4 1-2.8 1.9-4.3 2.7zm-159.8-1c-1.5-.7-3-1.5-4.5-2.3l1.4-2.7c1.4.8 2.9 1.5 4.4 2.2l-1.3 2.8zm168.4-4.4l-1.7-2.5c1.4-.9 2.7-1.9 4-2.9l1.8 2.4c-1.4 1-2.7 2-4.1 3zm8.1-6l-1.9-2.4c1.3-1 2.6-2.1 3.8-3.1l1.9 2.3c-1.2 1.1-2.5 2.2-3.8 3.2zm7.7-6.5l-2-2.2c1.2-1.1 2.5-2.2 3.6-3.4l2.1 2.2c-1.2 1.1-2.4 2.3-3.7 3.4zm7.4-6.9l-2.1-2.1c1.2-1.2 2.3-2.4 3.5-3.6l2.2 2.1c-1.3 1.2-2.5 2.4-3.6 3.6zm6.9-7.4l-2.2-2c1.1-1.2 2.2-2.5 3.3-3.7l2.3 1.9c-1.2 1.3-2.3 2.6-3.4 3.8zm21.9-4.4l-.2-3c1.5-.1 3.1-.2 4.9-.4l.3 3c-1.8.2-3.5.3-5 .4zm-5.3-.1c-.4-.1-.6-.1-.6-.1-1.4-.4-2.8-.8-4.4-1.3l.8-2.9c1.6.4 3 .8 4.3 1.2h.3l-.4 3.1zm15.4-1l-.5-3c1.4-.2 2.9-.5 4.5-.8l.3-.1.6 2.9c-.1 0-.3.1-.4.1-1.6.4-3.1.7-4.5.9zm-25.2-1.6c-1.7-.4-3.3-.8-4.9-1.2l.8-2.9c.4.1.9.2 1.3.4.4-1 .8-2.1 1.2-3.2l2.8 1c-.4 1-.7 2-1.1 3 .2 0 .4.1.5.1l-.6 2.8zm35.2-1l-1.3-2.7c1.3-.6 2.6-1.4 4.2-2.3l1.6 2.6c-1.6.9-3.1 1.7-4.5 2.4zm-45-1.8c-1.1-.4-2.1-.9-3.1-1.3-.6-.3-1.1-.5-1.6-.8l1.4-2.7c.5.3 1 .5 1.6.8.9.4 1.8.8 2.8 1.2l-1.1 2.8zm53.8-3.5l-1.7-2.5c.9-.6 1.9-1.3 2.8-1.9l1.3-.9 1.7 2.5-1.3.9c-.9.7-1.9 1.3-2.8 1.9zm-63-1.1c-1.5-.9-3-1.8-4.3-2.7l1.7-2.5c1.3.9 2.7 1.8 4.2 2.6l-1.6 2.6zm21.8-3.4l-2.9-.9c.5-1.6.9-3.2 1.3-4.8l2.9.8c-.3 1.6-.8 3.3-1.3 4.9zm49.5-1.2l-1.8-2.4 3.9-3 1.9 2.4c-1.4 1-2.7 2-4 3zm-79.8-1c-1.4-1.1-2.7-2.2-3.9-3.3l2-2.2c1.1 1.1 2.4 2.1 3.7 3.2l-1.8 2.3zm87.7-5.3l-1.9-2.3c1.2-1 2.5-2.1 3.8-3.2l2 2.3c-1.4 1.1-2.6 2.2-3.9 3.2zm-95.1-1.8c-1.2-1.3-2.2-2.7-3.2-4.1l2.5-1.7c.9 1.3 1.8 2.6 2.9 3.8l-2.2 2zm40.3-.5l-2.9-.6c.3-1.6.7-3.3.9-4.8l3 .5c-.4 1.5-.7 3.2-1 4.9zm62.4-4.3l-2-2.2c1.2-1.1 2.4-2.2 3.6-3.4l2.1 2.2c-1.3 1.1-2.5 2.2-3.7 3.4zm-108.5-3.8c-.8-1.6-1.4-3.2-1.9-4.9l2.9-.8c.4 1.5 1 3 1.7 4.4l-2.7 1.3zm47.7-2l-3-.3c.2-1.7.3-3.3.3-4.9l3 .1c-.1 1.6-.2 3.4-.3 5.1zm68-1.2l-2.1-2.1c1.1-1.1 2.3-2.3 3.5-3.6l2.2 2.1c-1.3 1.2-2.4 2.4-3.6 3.6zm-118.5-6.9c-.1-1.1-.2-2.1-.2-3.2 0-.7 0-1.4.1-2.1l3 .2c0 .6-.1 1.2-.1 1.9 0 1 .1 1.9.2 2.9l-3 .3zm125.5-.4l-2.2-2c1.1-1.2 2.2-2.4 3.4-3.7l2.2 2c-1.2 1.3-2.3 2.5-3.4 3.7zm-77.8-1.5c-.1-1.7-.3-3.3-.6-4.8l3-.5c.3 1.6.5 3.4.6 5.1l-3 .2zm84.5-6l-2.3-2c1.1-1.2 2.2-2.5 3.3-3.8l2.3 1.9c-1.1 1.4-2.2 2.7-3.3 3.9zm-128.6-1.9l-2.9-.7c.4-1.7.9-3.3 1.5-5l2.8 1.1c-.6 1.6-1.1 3.1-1.4 4.6zm42.4-1.6c-.5-1.6-1.1-3-1.8-4.4l2.7-1.4c.8 1.5 1.5 3.1 2 4.9l-2.9.9zm92.7-4.1l-2.3-1.9c.7-.9 1.5-1.8 2.2-2.7l1-1.2 2.3 1.9-1 1.2c-.7.9-1.4 1.8-2.2 2.7zm-131.7-3.2L236 170c.8-1.5 1.7-2.9 2.7-4.3l.1-.1 2.4 1.8c-1 1.3-1.9 2.6-2.6 4zm34.6-1c-1-1.2-2.1-2.3-3.3-3.3l1.9-2.3c1.4 1.1 2.6 2.4 3.7 3.8l-2.3 1.8zm103.5-3.5l-2.3-1.9c1.1-1.3 2.2-2.6 3.3-3.8l2.3 2c-1.1 1.2-2.2 2.4-3.3 3.7zM266 164.4c-1.3-.7-2.8-1.4-4.4-1.9l1-2.8c1.7.6 3.3 1.3 4.8 2.1l-1.4 2.6zm-21.7-.4l-1.9-2.3c1.3-1.1 2.8-2 4.5-2.9l1.4 2.7c-1.4.8-2.8 1.6-4 2.5zm12.7-2.7c-1.5-.3-3.1-.5-4.8-.7l.3-3c1.8.2 3.5.4 5.1.7l-.6 3zm126.2-2l-2.2-2c1.1-1.3 2.2-2.5 3.4-3.7l2.2 2c-1.2 1.3-2.3 2.5-3.4 3.7zm6.7-7.3l-2.2-2c1.1-1.2 2.3-2.5 3.4-3.7l2.2 2.1c-1.1 1.1-2.2 2.3-3.4 3.6zm6.9-7.3l-2.1-2.1c1.2-1.2 2.4-2.4 3.5-3.6l2.1 2.1c-1.1 1.2-2.3 2.4-3.5 3.6zm7.1-7.1l-2.1-2.1c1.2-1.2 2.4-2.3 3.6-3.5l2.1 2.2c-1.2 1.1-2.4 2.3-3.6 3.4zm7.2-6.8l-2-2.2c1.2-1.1 2.5-2.3 3.7-3.4l2 2.2c-1.2 1.1-2.5 2.2-3.7 3.4zm7.4-6.7l-2-2.3c1.3-1.1 2.5-2.2 3.8-3.3l1.9 2.3c-1.2 1.1-2.4 2.2-3.7 3.3zm7.6-6.5l-1.9-2.3c1.3-1.1 2.6-2.1 3.9-3.2l1.9 2.3c-1.3 1.1-2.6 2.1-3.9 3.2zm7.8-6.3L432 109c1.3-1 2.7-2.1 4-3.1l1.8 2.4-3.9 3zm7.9-6l-1.8-2.4c1.4-1 2.7-2 4.1-2.9l1.7 2.4c-1.3 1-2.6 1.9-4 2.9zm8.1-5.7l-1.7-2.5c1.4-1 2.8-1.9 4.2-2.8l1.6 2.5c-1.3.9-2.7 1.8-4.1 2.8zm8.4-5.5l-1.6-2.5c1.4-.9 2.9-1.8 4.3-2.6l1.5 2.6c-1.4.8-2.8 1.6-4.2 2.5zm8.5-5.1l-1.5-2.6c1.5-.8 2.9-1.7 4.4-2.4l1.4 2.6c-1.4.8-2.8 1.6-4.3 2.4zm8.8-4.7l-1.4-2.7c1.5-.8 3-1.5 4.5-2.2l1.3 2.7c-1.5.7-3 1.4-4.4 2.2zm8.9-4.3l-1.2-2.7c1.5-.7 3.1-1.3 4.6-2l1.1 2.8c-1.4.6-3 1.2-4.5 1.9zm9.2-3.7l-1-2.8c1.6-.6 3.2-1.2 4.8-1.7l.9 2.8c-1.6.5-3.1 1.1-4.7 1.7zm62.1-1.4c-1.5-.7-3-1.3-4.5-1.9l1.1-2.8c1.6.6 3.2 1.3 4.7 2l-1.3 2.7zm-52.7-1.7l-.8-2.9c1.6-.5 3.3-.9 4.9-1.3l.7 2.9c-1.6.4-3.2.8-4.8 1.3zm43.6-1.7c-1.5-.4-3.1-.8-4.8-1.1l.6-2.9c1.7.3 3.4.7 5 1.2l-.8 2.8zm-34-.6l-.6-2.9c1.7-.3 3.4-.6 5-.8l.4 3c-1.5.1-3.2.3-4.8.7zm24.4-1.3c-1.6-.2-3.2-.3-4.9-.4l.1-3c1.7.1 3.4.2 5.1.4l-.3 3zm-14.7-.1l-.3-3 5.1-.3.1 3c-1.6 0-3.2.1-4.9.3zM562.2 78.5c-.7-.4-1.4-.9-2.1-1.3l1.5-2.6c.7.4 1.5.9 2.2 1.4l-1.6 2.5z"/><g><path class="st2" d="M568.8 61.6l170.7-14-152-3.3z"/><path class="st3" d="M568.8 92.3l6 32L731.3 50z"/><path class="st4" d="M572.1 84l-3.3-22.4 166.6-14.1z"/><path class="st2" d="M562.1 72l177.4-23.4L534.8 106z"/></g></g></svg>