<?xml version="1.0" encoding="utf-8"?>
<!-- Generator: Adobe Illustrator 19.2.1, SVG Export Plug-In . SVG Version: 6.00 Build 0)  -->
<svg version="1.1" id="Layer_1" xmlns="http://www.w3.org/2000/svg" xmlns:xlink="http://www.w3.org/1999/xlink" x="0px" y="0px"
	 viewBox="0 0 200 200" style="enable-background:new 0 0 200 200;" xml:space="preserve">
<style type="text/css">
	.st0{fill:#2F332C;}
</style>
<g>
	<path class="st0" d="M96.5,124.5c0,14.4,0,28.9,0,43.3c-0.2,0.2-0.4,0.4-0.6,0.6c-12.6-0.2-25.4,1.6-37.8-1.8
		c-26.8-7.4-43.3-24.8-49.7-51.9c-0.3-1.1-0.5-2.1-0.5-3.4c0-6.5,0-13,0-19.5c0.5-2.7,0.7-4.5,1.2-6.8C17,55,43.4,34.5,74.3,34.5
		c6.6,0,13.2,0.1,19.9,0c1.9,0,2.6,0.4,2.6,2.4c-0.1,13.2-0.1,26.5,0,39.7c0,2.3-0.8,2.6-2.8,2.6c-6.7-0.1-13.5-0.2-20.2,0.1
		C61.4,79.8,52,89.6,52.1,101.6c0.1,11.9,9.4,21.6,21.6,22c7.4,0.3,14.9,0.2,22.3,0.3C96.2,124.1,96.4,124.3,96.5,124.5z"/>
	<path class="st0" d="M184.6,34.6c0.5,0,1,0,1.4-0.1c0,44.7,0,89.3,0,134c-0.5,0-1,0-1.4-0.1c-1.2-1.1-2.6-0.6-4-0.6
		c-22.5,0-44.9,0-67.4,0c-1.3,0-2.8,0.5-3.9-0.7c4.9-5.1,9.8-10.1,14.8-15.1c9.2-9.2,18.4-18.3,27.7-27.4c0.2-0.2,0.5-0.5,0.7-0.7
		c0,0,0,0.1,0,0.1c1-0.8,0.7-1.9,0.7-2.9c0-13,0-25.9,0-38.9c0-1,0.3-2.1-0.7-2.9c0,0,0,0.1,0,0.1c-0.2-0.2-0.5-0.5-0.7-0.7
		c-14.4-14-28.6-28.1-42.5-42.6c1.1-1.2,2.6-0.7,3.9-0.7c22.5,0,44.9,0,67.4,0C181.9,35.2,183.4,35.7,184.6,34.6z"/>
	<path class="st0" d="M184.6,34.6c-1.2,1.1-2.6,0.6-4,0.6c-22.5,0-44.9,0-67.4,0c-1.3,0-2.8-0.5-3.9,0.7c-0.4-0.3-1.3-0.6-0.6-1.2
		c0.4-0.4,1.3-0.2,2-0.2C135.2,34.5,159.9,34.5,184.6,34.6z"/>
	<path class="st0" d="M109.2,167.1c1.1,1.2,2.6,0.7,3.9,0.7c22.5,0,44.9,0,67.4,0c1.3,0,2.8-0.5,4,0.6c-24.8,0-49.6,0-74.3,0
		C109.5,168.5,107.4,169.1,109.2,167.1z"/>
	<path class="st0" d="M152.5,79.2c1,0.8,0.7,1.9,0.7,2.9c0,13,0,25.9,0,38.9c0,1,0.3,2.1-0.7,2.9C152.5,108.9,152.5,94.1,152.5,79.2
		z"/>
	<path class="st0" d="M151.7,78.5c0.2,0.2,0.5,0.5,0.7,0.7C152.2,79,152,78.7,151.7,78.5z"/>
	<path class="st0" d="M96.5,124.5c-0.2-0.2-0.4-0.4-0.6-0.6C96.4,123.9,96.6,124,96.5,124.5z"/>
	<path class="st0" d="M152.5,123.8c-0.2,0.2-0.5,0.5-0.7,0.7C152,124.3,152.2,124,152.5,123.8z"/>
	<path class="st0" d="M96,168.4c0.2-0.2,0.4-0.4,0.6-0.6C96.6,168.3,96.4,168.5,96,168.4z"/>
</g>
</svg>
